<svg xmlns="http://www.w3.org/2000/svg" viewBox="0 0 400 320" width="400" height="320">
  <rect width="400" height="320" fill="#f8f8f8"/>
  <!-- Shadow -->
  <ellipse cx="200" cy="295" rx="145" ry="12" fill="#00000015"/>
  
        <!-- Stiletto heel shoe -->
        <ellipse cx="200" cy="195" rx="140" ry="38" fill="#C8A951" stroke="#222222" stroke-width="3"/>
        <path d="M 80 195 Q 60 160 80 130 Q 120 90 200 88 Q 280 86 320 120 Q 340 155 330 195 Z" fill="#C8A951" stroke="#222222" stroke-width="3"/>
        <path d="M 100 130 Q 140 110 200 108 Q 260 108 300 130" fill="none" stroke="#222222" stroke-width="2.5"/>
        <!-- Heel -->
        <rect x="82" y="195" width="12" height="55" rx="4" fill="#222222"/>
        <ellipse cx="88" cy="252" rx="10" ry="5" fill="#222222"/>
        <!-- Toe cap -->
        <ellipse cx="310" cy="192" rx="22" ry="14" fill="#222222" opacity="0.4"/>
        <!-- Strap -->
        <path d="M 150 110 Q 200 95 250 110" fill="none" stroke="#222222" stroke-width="5" stroke-linecap="round"/>
        
  <!-- Brand label -->
  <rect x="14" y="14" width="60" height="26" rx="13" fill="#C8A951"/>
  <text x="43" y="31" font-family="Arial Black, Arial" font-weight="900" font-size="11" fill="white" text-anchor="middle" letter-spacing="1">KP</text>
</svg>