<svg xmlns="http://www.w3.org/2000/svg" viewBox="0 0 400 320" width="400" height="320">
  <rect width="400" height="320" fill="#f8f8f8"/>
  <!-- Shadow -->
  <ellipse cx="200" cy="295" rx="145" ry="12" fill="#00000015"/>
  
        <!-- High-top streetwear -->
        <rect x="108" y="78" width="215" height="142" rx="12" fill="#111111" stroke="#C8A951" stroke-width="3"/>
        <path d="M 55 210 Q 50 175 108 165 L 108 220 Z" fill="#111111" stroke="#C8A951" stroke-width="3"/>
        <ellipse cx="210" cy="222" rx="158" ry="26" fill="#C8A951"/>
        <!-- Ankle collar -->
        <path d="M 108 78 Q 200 65 323 78" fill="none" stroke="#C8A951" stroke-width="5" stroke-linecap="round"/>
        <!-- Laces -->
        <line x1="148" y1="118" x2="283" y2="118" stroke="#C8A951" stroke-width="3.5" opacity="0.8"/>
        <line x1="148" y1="135" x2="283" y2="135" stroke="#C8A951" stroke-width="3.5" opacity="0.8"/>
        <line x1="148" y1="152" x2="283" y2="152" stroke="#C8A951" stroke-width="3.5" opacity="0.8"/>
        <line x1="148" y1="169" x2="283" y2="169" stroke="#C8A951" stroke-width="3.5" opacity="0.8"/>
        <line x1="148" y1="186" x2="283" y2="186" stroke="#C8A951" stroke-width="3.5" opacity="0.8"/>
        <!-- Eyelets -->
        <circle cx="148" cy="118" r="5" fill="#C8A951"/><circle cx="283" cy="118" r="5" fill="#C8A951"/><circle cx="148" cy="135" r="5" fill="#C8A951"/><circle cx="283" cy="135" r="5" fill="#C8A951"/><circle cx="148" cy="152" r="5" fill="#C8A951"/><circle cx="283" cy="152" r="5" fill="#C8A951"/><circle cx="148" cy="169" r="5" fill="#C8A951"/><circle cx="283" cy="169" r="5" fill="#C8A951"/><circle cx="148" cy="186" r="5" fill="#C8A951"/><circle cx="283" cy="186" r="5" fill="#C8A951"/>
        
  <!-- Brand label -->
  <rect x="14" y="14" width="60" height="26" rx="13" fill="#C8A951"/>
  <text x="43" y="31" font-family="Arial Black, Arial" font-weight="900" font-size="11" fill="white" text-anchor="middle" letter-spacing="1">KP</text>
</svg>