<svg xmlns="http://www.w3.org/2000/svg" viewBox="0 0 400 320" width="400" height="320">
  <rect width="400" height="320" fill="#f8f8f8"/>
  <!-- Shadow -->
  <ellipse cx="200" cy="295" rx="145" ry="12" fill="#00000015"/>
  
        <!-- Oxford/Derby formal shoe -->
        <ellipse cx="200" cy="210" rx="155" ry="32" fill="#C8A951" opacity="0.3"/>
        <path d="M 55 210 Q 50 165 70 135 Q 100 95 185 88 Q 270 82 320 115 Q 355 145 355 210 Z" fill="#8B4513" stroke="#C8A951" stroke-width="3"/>
        <!-- Sole -->
        <path d="M 55 210 Q 200 230 355 210 Q 355 225 200 232 Q 55 225 55 210 Z" fill="#C8A951"/>
        <!-- Laces -->
        <line x1="155" y1="150" x2="245" y2="150" stroke="#C8A951" stroke-width="3"/>
        <line x1="150" y1="163" x2="250" y2="163" stroke="#C8A951" stroke-width="3"/>
        <line x1="148" y1="176" x2="252" y2="176" stroke="#C8A951" stroke-width="3"/>
        <line x1="150" y1="189" x2="250" y2="189" stroke="#C8A951" stroke-width="3"/>
        <!-- Broguing -->
        <path d="M 270 120 Q 310 130 340 155" fill="none" stroke="#C8A951" stroke-width="2" stroke-dasharray="4,3"/>
        <!-- Toe cap seam -->
        <path d="M 310 135 Q 345 165 345 200" fill="none" stroke="#C8A951" stroke-width="2.5" opacity="0.5"/>
        
  <!-- Brand label -->
  <rect x="14" y="14" width="60" height="26" rx="13" fill="#C8A951"/>
  <text x="43" y="31" font-family="Arial Black, Arial" font-weight="900" font-size="11" fill="white" text-anchor="middle" letter-spacing="1">KP</text>
</svg>