<svg xmlns="http://www.w3.org/2000/svg" viewBox="0 0 400 320" width="400" height="320">
  <rect width="400" height="320" fill="#f8f8f8"/>
  <!-- Shadow -->
  <ellipse cx="200" cy="295" rx="145" ry="12" fill="#00000015"/>
  
        <!-- Slip-on -->
        <ellipse cx="200" cy="215" rx="150" ry="30" fill="#FFFFFF" opacity="0.4"/>
        <path d="M 60 215 Q 55 170 80 140 Q 120 100 200 95 Q 280 90 325 135 Q 350 165 345 215 Z" fill="#1E3A5F" stroke="#FFFFFF" stroke-width="3"/>
        <!-- No laces, elastic band -->
        <path d="M 110 160 Q 200 148 295 160" fill="none" stroke="#FFFFFF" stroke-width="8" stroke-linecap="round" opacity="0.5"/>
        <!-- Sole -->
        <path d="M 60 215 Q 200 232 345 215 Q 345 228 200 234 Q 60 228 60 215 Z" fill="#FFFFFF"/>
        <!-- Toe -->
        <ellipse cx="330" cy="210" rx="20" ry="13" fill="#FFFFFF" opacity="0.3"/>
        
  <!-- Brand label -->
  <rect x="14" y="14" width="60" height="26" rx="13" fill="#C8A951"/>
  <text x="43" y="31" font-family="Arial Black, Arial" font-weight="900" font-size="11" fill="white" text-anchor="middle" letter-spacing="1">KP</text>
</svg>