<svg xmlns="http://www.w3.org/2000/svg" viewBox="0 0 400 320" width="400" height="320">
  <rect width="400" height="320" fill="#f8f8f8"/>
  <!-- Shadow -->
  <ellipse cx="200" cy="295" rx="145" ry="12" fill="#00000015"/>
  
        <!-- Boot -->
        <rect x="110" y="85" width="190" height="250" rx="15" fill="#1a1a1a" stroke="#C8A951" stroke-width="3"/>
        <path d="M 60 310 Q 55 270 110 260 L 110 315 Z" fill="#1a1a1a" stroke="#C8A951" stroke-width="3"/>
        <ellipse cx="210" cy="320" rx="155" ry="28" fill="#C8A951"/>
        <!-- Laces -->
        <line x1="145" y1="140" x2="275" y2="140" stroke="#C8A951" stroke-width="3"/>
        <line x1="145" y1="158" x2="275" y2="158" stroke="#C8A951" stroke-width="3"/>
        <line x1="145" y1="176" x2="275" y2="176" stroke="#C8A951" stroke-width="3"/>
        <line x1="145" y1="194" x2="275" y2="194" stroke="#C8A951" stroke-width="3"/>
        <line x1="145" y1="212" x2="275" y2="212" stroke="#C8A951" stroke-width="3"/>
        <!-- Eyelets -->
        <circle cx="145" cy="140" r="5" fill="#C8A951"/><circle cx="275" cy="140" r="5" fill="#C8A951"/><circle cx="145" cy="158" r="5" fill="#C8A951"/><circle cx="275" cy="158" r="5" fill="#C8A951"/><circle cx="145" cy="176" r="5" fill="#C8A951"/><circle cx="275" cy="176" r="5" fill="#C8A951"/><circle cx="145" cy="194" r="5" fill="#C8A951"/><circle cx="275" cy="194" r="5" fill="#C8A951"/><circle cx="145" cy="212" r="5" fill="#C8A951"/><circle cx="275" cy="212" r="5" fill="#C8A951"/>
        <!-- Toe box -->
        <path d="M 60 310 Q 100 290 110 260" fill="none" stroke="#C8A951" stroke-width="2.5" opacity="0.5"/>
        
  <!-- Brand label -->
  <rect x="14" y="14" width="60" height="26" rx="13" fill="#C8A951"/>
  <text x="43" y="31" font-family="Arial Black, Arial" font-weight="900" font-size="11" fill="white" text-anchor="middle" letter-spacing="1">KP</text>
</svg>