<svg xmlns="http://www.w3.org/2000/svg" viewBox="0 0 400 320" width="400" height="320">
  <rect width="400" height="320" fill="#f8f8f8"/>
  <!-- Shadow -->
  <ellipse cx="200" cy="295" rx="145" ry="12" fill="#00000015"/>
  
        <!-- Court pump -->
        <path d="M 80 210 Q 75 170 100 140 Q 140 100 220 95 Q 300 90 340 140 Q 360 170 350 210 Z" fill="#FFB6C1" stroke="#C0C0C0" stroke-width="3"/>
        <!-- Block heel -->
        <rect x="78" y="210" width="30" height="48" rx="5" fill="#C0C0C0"/>
        <ellipse cx="93" cy="260" rx="20" ry="8" fill="#C0C0C0"/>
        <!-- Sole -->
        <path d="M 108 210 Q 230 228 350 210 Q 350 222 230 228 Q 108 222 108 210 Z" fill="#C0C0C0"/>
        <!-- Toe point -->
        <ellipse cx="340" cy="200" rx="18" ry="12" fill="#C0C0C0" opacity="0.35"/>
        <!-- Bow/detail -->
        <path d="M 200 120 Q 220 108 240 120 Q 220 132 200 120 Z" fill="#C0C0C0" opacity="0.7"/>
        
  <!-- Brand label -->
  <rect x="14" y="14" width="60" height="26" rx="13" fill="#C8A951"/>
  <text x="43" y="31" font-family="Arial Black, Arial" font-weight="900" font-size="11" fill="white" text-anchor="middle" letter-spacing="1">KP</text>
</svg>