<svg xmlns="http://www.w3.org/2000/svg" viewBox="0 0 400 320" width="400" height="320">
  <rect width="400" height="320" fill="#f8f8f8"/>
  <!-- Shadow -->
  <ellipse cx="200" cy="295" rx="145" ry="12" fill="#00000015"/>
  
        <!-- Standard sneaker -->
        <path d="M 52 205 Q 47 160 74 126 Q 114 86 200 83 Q 284 80 328 118 Q 356 150 352 205 Z" fill="#6B7280" stroke="#84CC16" stroke-width="3"/>
        <!-- Midsole -->
        <path d="M 52 205 Q 200 222 352 205 L 350 230 Q 200 246 53 230 Z" fill="#555"/>
        <!-- Outsole -->
        <path d="M 53 230 Q 200 246 350 230 L 348 245 Q 200 258 54 245 Z" fill="#84CC16"/>
        <!-- Lace eyelets line -->
        <line x1="112" y1="150" x2="282" y2="150" stroke="#84CC16" stroke-width="3.5"/>
        <line x1="109" y1="166" x2="286" y2="166" stroke="#84CC16" stroke-width="3.5"/>
        <line x1="107" y1="182" x2="288" y2="182" stroke="#84CC16" stroke-width="3.5"/>
        <line x1="107" y1="198" x2="288" y2="198" stroke="#84CC16" stroke-width="3.5"/>
        <!-- Mesh upper hint -->
        <path d="M 88 135 Q 145 116 200 113 Q 258 110 315 132" fill="none" stroke="#84CC16" stroke-width="2" opacity="0.3"/>
        <!-- Heel counter -->
        <path d="M 52 180 Q 72 160 80 205" fill="#84CC16" opacity="0.4"/>
        <!-- Toe cap -->
        <ellipse cx="335" cy="200" rx="20" ry="14" fill="#84CC16" opacity="0.3"/>
        
  <!-- Brand label -->
  <rect x="14" y="14" width="60" height="26" rx="13" fill="#C8A951"/>
  <text x="43" y="31" font-family="Arial Black, Arial" font-weight="900" font-size="11" fill="white" text-anchor="middle" letter-spacing="1">KP</text>
</svg>