<svg xmlns="http://www.w3.org/2000/svg" viewBox="0 0 400 320" width="400" height="320">
  <rect width="400" height="320" fill="#f8f8f8"/>
  <!-- Shadow -->
  <ellipse cx="200" cy="295" rx="145" ry="12" fill="#00000015"/>
  
        <!-- Air Max chunky sole -->
        <path d="M 50 195 Q 45 150 75 118 Q 115 80 200 78 Q 285 76 330 112 Q 360 145 355 195 Z" fill="#111111" stroke="#FF5000" stroke-width="3"/>
        <!-- Air unit visible -->
        <ellipse cx="115" cy="212" rx="55" ry="22" fill="none" stroke="#FF5000" stroke-width="3"/>
        <ellipse cx="115" cy="212" rx="48" ry="16" fill="#FF5000" opacity="0.3"/>
        <!-- Sole layers -->
        <path d="M 50 195 Q 200 215 355 195 L 356 218 Q 200 238 49 218 Z" fill="#FF5000"/>
        <path d="M 49 218 Q 200 238 356 218 L 354 235 Q 200 250 50 235 Z" fill="#FF5000" opacity="0.6"/>
        <!-- Mesh upper lines -->
        <path d="M 90 130 Q 145 112 200 110 Q 255 108 305 125" fill="none" stroke="#FF5000" stroke-width="2" opacity="0.4"/>
        <path d="M 80 155 Q 140 138 200 136 Q 260 134 320 150" fill="none" stroke="#FF5000" stroke-width="2" opacity="0.4"/>
        <!-- Laces -->
        <line x1="120" y1="148" x2="278" y2="148" stroke="#FF5000" stroke-width="3.5" opacity="0.8"/>
        <line x1="115" y1="163" x2="285" y2="163" stroke="#FF5000" stroke-width="3.5" opacity="0.8"/>
        
  <!-- Brand label -->
  <rect x="14" y="14" width="60" height="26" rx="13" fill="#FF5000"/>
  <text x="43" y="31" font-family="Arial Black, Arial" font-weight="900" font-size="11" fill="white" text-anchor="middle" letter-spacing="1">NIKE</text>
</svg>