<svg xmlns="http://www.w3.org/2000/svg" viewBox="0 0 400 320" width="400" height="320">
  <rect width="400" height="320" fill="#f8f8f8"/>
  <!-- Shadow -->
  <ellipse cx="200" cy="295" rx="145" ry="12" fill="#00000015"/>
  
        <!-- Court shoe clean -->
        <path d="M 55 208 Q 50 165 76 134 Q 116 96 200 93 Q 284 90 328 128 Q 354 160 348 208 Z" fill="#FFFFFF" stroke="#111111" stroke-width="3"/>
        <!-- Perforations -->
        <circle cx="175" cy="145" r="4" fill="#111111" opacity="0.4"/>
        <circle cx="195" cy="140" r="4" fill="#111111" opacity="0.4"/>
        <circle cx="215" cy="138" r="4" fill="#111111" opacity="0.4"/>
        <circle cx="235" cy="140" r="4" fill="#111111" opacity="0.4"/>
        <circle cx="255" cy="145" r="4" fill="#111111" opacity="0.4"/>
        <circle cx="175" cy="162" r="4" fill="#111111" opacity="0.4"/>
        <circle cx="195" cy="158" r="4" fill="#111111" opacity="0.4"/>
        <circle cx="215" cy="156" r="4" fill="#111111" opacity="0.4"/>
        <circle cx="235" cy="158" r="4" fill="#111111" opacity="0.4"/>
        <circle cx="255" cy="162" r="4" fill="#111111" opacity="0.4"/>
        <!-- Sole -->
        <path d="M 55 208 Q 200 225 348 208 L 346 228 Q 200 242 56 228 Z" fill="#111111"/>
        <!-- Laces -->
        <line x1="115" y1="155" x2="278" y2="155" stroke="#111111" stroke-width="3" opacity="0.7"/>
        <line x1="112" y1="170" x2="282" y2="170" stroke="#111111" stroke-width="3" opacity="0.7"/>
        <line x1="110" y1="185" x2="285" y2="185" stroke="#111111" stroke-width="3" opacity="0.7"/>
        <line x1="110" y1="200" x2="285" y2="200" stroke="#111111" stroke-width="3" opacity="0.7"/>
        
  <!-- Brand label -->
  <rect x="14" y="14" width="60" height="26" rx="13" fill="#FF5000"/>
  <text x="43" y="31" font-family="Arial Black, Arial" font-weight="900" font-size="11" fill="white" text-anchor="middle" letter-spacing="1">NIKE</text>
</svg>