<svg xmlns="http://www.w3.org/2000/svg" viewBox="0 0 400 320" width="400" height="320">
  <rect width="400" height="320" fill="#f8f8f8"/>
  <!-- Shadow -->
  <ellipse cx="200" cy="295" rx="145" ry="12" fill="#00000015"/>
  
        <!-- Puma Suede - classic low -->
        <path d="M 55 210 Q 50 168 76 136 Q 116 97 200 94 Q 284 91 328 130 Q 353 161 348 210 Z" fill="#111111" stroke="#333" stroke-width="3"/>
        <!-- Formstripe -->
        <path d="M 148 118 Q 175 105 210 102 Q 175 168 155 205" fill="#FFFFFF" stroke="#FFFFFF" stroke-width="1" opacity="0.75"/>
        <!-- Sole -->
        <path d="M 55 210 Q 200 228 348 210 L 346 230 Q 200 244 56 230 Z" fill="#EFEFEF" stroke="#ccc" stroke-width="1"/>
        <!-- Laces -->
        <line x1="118" y1="155" x2="278" y2="155" stroke="#888" stroke-width="3"/>
        <line x1="115" y1="170" x2="282" y2="170" stroke="#888" stroke-width="3"/>
        <line x1="113" y1="185" x2="285" y2="185" stroke="#888" stroke-width="3"/>
        <line x1="112" y1="200" x2="286" y2="200" stroke="#888" stroke-width="3"/>
        <!-- Toe overlay -->
        <path d="M 310 145 Q 345 172 342 210 Q 315 200 308 175 Z" fill="#333" opacity="0.25"/>
        
  <!-- Brand label -->
  <rect x="14" y="14" width="60" height="26" rx="13" fill="#CC0000"/>
  <text x="43" y="31" font-family="Arial Black, Arial" font-weight="900" font-size="11" fill="white" text-anchor="middle" letter-spacing="1">PUMA</text>
</svg>