<svg xmlns="http://www.w3.org/2000/svg" viewBox="0 0 400 320" width="400" height="320">
  <rect width="400" height="320" fill="#f8f8f8"/>
  <!-- Shadow -->
  <ellipse cx="200" cy="295" rx="145" ry="12" fill="#00000015"/>
  
        <!-- Kids shoe - rounder, velcro -->
        <path d="M 58 210 Q 52 168 80 135 Q 122 96 205 92 Q 285 88 328 130 Q 352 162 346 210 Z" fill="#FFFFFF" stroke="#1E3A5F" stroke-width="3"/>
        <!-- Velcro strap -->
        <rect x="115" y="148" width="185" height="22" rx="11" fill="#1E3A5F" opacity="0.85"/>
        <rect x="258" y="144" width="44" height="30" rx="8" fill="#1E3A5F"/>
        <!-- Velcro texture dots -->
        <circle cx="268" cy="159" r="2.5" fill="#FFFFFF" opacity="0.6"/>
        <circle cx="280" cy="159" r="2.5" fill="#FFFFFF" opacity="0.6"/>
        <circle cx="292" cy="159" r="2.5" fill="#FFFFFF" opacity="0.6"/>
        <!-- Sole -->
        <path d="M 58 210 Q 202 228 346 210 L 344 230 Q 202 246 59 230 Z" fill="#1E3A5F"/>
        <!-- Star decoration -->
        <text x="195" y="135" font-size="22" fill="#1E3A5F" text-anchor="middle" opacity="0.5">★</text>
        
  <!-- Brand label -->
  <rect x="14" y="14" width="60" height="26" rx="13" fill="#CC0000"/>
  <text x="43" y="31" font-family="Arial Black, Arial" font-weight="900" font-size="11" fill="white" text-anchor="middle" letter-spacing="1">PUMA</text>
</svg>